<svg xmlns="http://www.w3.org/2000/svg" viewBox="0 0 16 16" width="16" height="16">
  <!-- MariaDB sea lion / seal silhouette -->
  <path d="M4 13c-0.5-1-0.5-2 0-3c0.5-1 1.5-2 2.5-2.5
    c-0.5-0.5-0.5-1.5 0-2c0.5-0.5 1-1 2-1
    c0.5 0 1 0.2 1.2 0.5c0.3-0.5 0.8-1 1.5-1.2
    c0.7-0.2 1.5 0 2 0.5c0.3 0.3 0.5 0.8 0.3 1.2
    c-0.2 0.5-0.5 0.8-1 1c0.5 0.5 0.5 1.2 0 1.8
    c-0.3 0.3-0.8 0.5-1.2 0.5c0.3 0.8 0 1.5-0.5 2
    c-0.5 0.5-1.2 0.8-2 0.8c-0.3 0.8-1 1.5-1.8 1.8
    c-0.8 0.3-1.8 0.2-2.5-0.3c-0.3-0.3-0.5-0.5-0.5-1z" fill="#C0765A"/>
  <circle cx="12" cy="5" r="0.5" fill="#fff"/>
</svg>
