<svg xmlns="http://www.w3.org/2000/svg" viewBox="0 0 16 16" width="16" height="16">
  <!-- MySQL dolphin silhouette -->
  <path d="M3 11c0.5-2 2-3.5 3.5-4.5C8 5.5 9 4.5 9 3.5c0-0.8-0.5-1.5-1-1.5
    c1.5 0 2.5 1 3 2c0.5 1 1.5 1.5 2.5 1.5c0.5 0 1 0 1.5-0.5
    c-0.5 1.5-2 2.5-3.5 2.5c-0.5 0-1-0.2-1.5-0.5
    c-0.5 1-1 2.5-0.5 4c0.3 1 1 2 2 2.5
    c-1 0-2-0.3-2.5-1c-0.5-0.7-0.8-1.5-0.8-2.5
    c-1 1-1.5 2-1.5 3c-1-0.5-2-1.5-2.5-3
    c-0.3-0.8-0.3-1.5-0.2-2z" fill="#E48E00"/>
  <circle cx="8.5" cy="3.2" r="0.5" fill="#fff"/>
</svg>
