<svg xmlns="http://www.w3.org/2000/svg" viewBox="0 0 16 16" width="16" height="16">
  <!-- PostgreSQL elephant head silhouette -->
  <path d="M11 3c1 0 2 0.5 2.5 1.5c0.5 1 0.5 2 0 3
    c1 0.5 1.2 1.5 0.8 2.3c-0.3 0.5-0.8 0.8-1.3 1
    l0.5 2.2c0 0.3-0.2 0.5-0.5 0.5h-1c-0.3 0-0.5-0.2-0.5-0.5
    l-0.3-1.5c-0.5 0.3-1 0.5-1.7 0.5c-0.5 0-1-0.2-1.5-0.5
    l-0.3 1.5c0 0.3-0.2 0.5-0.5 0.5h-1c-0.3 0-0.5-0.2-0.5-0.5
    l0.5-2.2c-0.8-0.5-1.2-1.2-1.2-2c0-0.5 0.2-1 0.5-1.3
    c-0.5-0.5-0.8-1.2-0.8-2c0-1 0.5-2 1.5-2.5c0.8-0.5 2-0.5 3-0.5z" fill="#336791"/>
  <circle cx="7.5" cy="6" r="0.7" fill="#fff"/>
  <circle cx="10" cy="6" r="0.7" fill="#fff"/>
  <path d="M7.5 8.5c0 0 0.8 0.8 2.5 0" stroke="#fff" stroke-width="0.6" fill="none" stroke-linecap="round"/>
</svg>
