<svg xmlns="http://www.w3.org/2000/svg" viewBox="0 0 16 16" width="16" height="16">
  <!-- SQLite feather -->
  <path d="M12.5 1.5c-1 1-2 2.5-3 4c-1 1.5-2 3-2.5 4.5
    c-0.5 1.5-0.5 2.5-0.3 3.5
    c-1-0.5-1.8-1.5-2-2.8c-0.3-1.3 0-2.5 0.5-3.8
    c0.5-1.2 1.2-2.3 2-3.2c0.8-1 1.5-1.8 2-2.5
    c0.5-0.5 1-1 1.5-1c0.5 0 1 0.3 1.3 0.5
    c0.3 0.3 0.5 0.5 0.5 0.8z" fill="#44A8D6"/>
  <path d="M6.7 10c1.5-2 3-4 4.3-5.5" stroke="#fff" stroke-width="0.5" fill="none" opacity="0.6"/>
  <path d="M7 11.5c1-1.5 2.5-3.5 3.8-5" stroke="#fff" stroke-width="0.5" fill="none" opacity="0.4"/>
</svg>
